<?xml version="1.0" encoding="UTF-8" standalone="no"?>
<svg width="100" height="100" viewBox="0 0 100 100" version="1.1" xmlns="http://www.w3.org/2000/svg">
<rect style="fill:#3178c6;fill-opacity:1;" width="80" height="80" x="10" y="10" rx="4" />
<g>
<path d="m 36.434894,72.640604 h 2.861977 V 54.830723 h -3.354164 v 3.572914 h -5.942703 v -8.403639 h 25.137999 v 8.403639 h -5.979161 v -3.572914 h -3.809893 v 17.809881 h 2.916664 v 4.994787 H 36.434894 Z" style="fill:#ffffff" />
<path d="m 57.197897,49.999998 h 10.609366 q 1.895832,0 3.627601,0.492187 1.749999,0.492187 3.244789,1.385416 1.51302,0.893228 2.734373,2.15104 1.239582,1.239582 2.114582,2.77083 0.874999,1.531249 1.348957,3.299477 0.473958,1.768227 0.473958,3.682288 0,1.914061 -0.473958,3.682289 -0.473958,1.768228 -1.348957,3.317705 -0.875,1.531249 -2.114582,2.80729 -1.221353,1.257811 -2.734373,2.169269 -1.49479,0.893228 -3.244789,1.385415 -1.731769,0.492187 -3.627601,0.492187 H 57.197897 v -4.994787 h 2.205728 V 55.013015 h -2.205728 z m 8.257806,5.013017 v 17.627589 h 2.315102 q 1.476561,0 2.78906,-0.692708 1.312499,-0.692708 2.278644,-1.877602 0.966145,-1.203124 1.531249,-2.80729 0.565103,-1.622394 0.565103,-3.481768 0,-1.841144 -0.565103,-3.445309 -0.565104,-1.604166 -1.531249,-2.78906 -0.966145,-1.184895 -2.278644,-1.859374 -1.312499,-0.674478 -2.78906,-0.674478 z" style="fill:#ffffff" />
</g>
</svg>
